<?xml version="1.0" encoding="UTF-8"?>
<svg version="1.1" xmlns="http://www.w3.org/2000/svg" width="510" height="510" shape-rendering="crispEdges">
<path d="M0 0 C8.91 0 17.82 0 27 0 C27 0.99 27 1.98 27 3 C31.95 3 36.9 3 42 3 C42 3.99 42 4.98 42 6 C44.97 6 47.94 6 51 6 C51 6.99 51 7.98 51 9 C53.97 9 56.94 9 60 9 C60 9.99 60 10.98 60 12 C62.97 12 65.94 12 69 12 C69 12.99 69 13.98 69 15 C70.98 15 72.96 15 75 15 C75 15.99 75 16.98 75 18 C76.98 18 78.96 18 81 18 C81 18.99 81 19.98 81 21 C82.98 21 84.96 21 87 21 C87 21.99 87 22.98 87 24 C88.98 24 90.96 24 93 24 C93 24.99 93 25.98 93 27 C93.99 27 94.98 27 96 27 C96 27.99 96 28.98 96 30 C96.99 30 97.98 30 99 30 C99 30.99 99 31.98 99 33 C99.99 33 100.98 33 102 33 C102 33.99 102 34.98 102 36 C102.99 36 103.98 36 105 36 C105 36.99 105 37.98 105 39 C105.99 39 106.98 39 108 39 C108 39.99 108 40.98 108 42 C108.99 42 109.98 42 111 42 C111 42.99 111 43.98 111 45 C111.99 45 112.98 45 114 45 C114 45.99 114 46.98 114 48 C114.99 48 115.98 48 117 48 C117 48.99 117 49.98 117 51 C117.99 51 118.98 51 120 51 C120 51.99 120 52.98 120 54 C120.99 54 121.98 54 123 54 C123 54.99 123 55.98 123 57 C123.99 57 124.98 57 126 57 C126 57.99 126 58.98 126 60 C126.99 60 127.98 60 129 60 C129 60.99 129 61.98 129 63 C129.99 63 130.98 63 132 63 C132 63.99 132 64.98 132 66 C132.99 66 133.98 66 135 66 C135 66.99 135 67.98 135 69 C135.99 69 136.98 69 138 69 C138 69.99 138 70.98 138 72 C138.99 72 139.98 72 141 72 C141 72.99 141 73.98 141 75 C141.99 75 142.98 75 144 75 C144 75.99 144 76.98 144 78 C144.99 78 145.98 78 147 78 C147 78.99 147 79.98 147 81 C147.99 81 148.98 81 150 81 C150 81.99 150 82.98 150 84 C150.99 84 151.98 84 153 84 C153 84.99 153 85.98 153 87 C153.99 87 154.98 87 156 87 C156 87.99 156 88.98 156 90 C156.99 90 157.98 90 159 90 C159 90.99 159 91.98 159 93 C159.99 93 160.98 93 162 93 C162 93.99 162 94.98 162 96 C162.99 96 163.98 96 165 96 C165 96.99 165 97.98 165 99 C165.99 99 166.98 99 168 99 C168 99.99 168 100.98 168 102 C168.99 102 169.98 102 171 102 C171 102.99 171 103.98 171 105 C171.99 105 172.98 105 174 105 C174 105.99 174 106.98 174 108 C174.99 108 175.98 108 177 108 C177 108.99 177 109.98 177 111 C177.99 111 178.98 111 180 111 C180 111.99 180 112.98 180 114 C180.99 114 181.98 114 183 114 C183 114.99 183 115.98 183 117 C183.99 117 184.98 117 186 117 C186 117.99 186 118.98 186 120 C186.99 120 187.98 120 189 120 C189 120.99 189 121.98 189 123 C189.99 123 190.98 123 192 123 C192 123.99 192 124.98 192 126 C192.99 126 193.98 126 195 126 C195 126.99 195 127.98 195 129 C195.99 129 196.98 129 198 129 C198 129.99 198 130.98 198 132 C198.99 132 199.98 132 201 132 C201 132.99 201 133.98 201 135 C201.99 135 202.98 135 204 135 C204 135.99 204 136.98 204 138 C204.99 138 205.98 138 207 138 C207 138.99 207 139.98 207 141 C207.99 141 208.98 141 210 141 C210 141.99 210 142.98 210 144 C210.99 144 211.98 144 213 144 C213 144.99 213 145.98 213 147 C213.99 147 214.98 147 216 147 C216 147.99 216 148.98 216 150 C216.99 150 217.98 150 219 150 C219 150.99 219 151.98 219 153 C219.99 153 220.98 153 222 153 C222 153.99 222 154.98 222 156 C222.99 156 223.98 156 225 156 C225 156.99 225 157.98 225 159 C225.99 159 226.98 159 228 159 C228 159.99 228 160.98 228 162 C228.99 162 229.98 162 231 162 C231 162.99 231 163.98 231 165 C231.99 165 232.98 165 234 165 C234 165.99 234 166.98 234 168 C234.99 168 235.98 168 237 168 C237 168.99 237 169.98 237 171 C237.99 171 238.98 171 240 171 C240 171.99 240 172.98 240 174 C240.99 174 241.98 174 243 174 C243 174.99 243 175.98 243 177 C243.99 177 244.98 177 246 177 C246 177.99 246 178.98 246 180 C246.99 180 247.98 180 249 180 C249 180.99 249 181.98 249 183 C249.99 183 250.98 183 252 183 C252 183.99 252 184.98 252 186 C252.99 186 253.98 186 255 186 C255 186.99 255 187.98 255 189 C255.99 189 256.98 189 258 189 C258 189.99 258 190.98 258 192 C258.99 192 259.98 192 261 192 C261 192.99 261 193.98 261 195 C260.01 195 259.02 195 258 195 C258 195.99 258 196.98 258 198 C257.01 198 256.02 198 255 198 C255 198.99 255 199.98 255 201 C254.01 201 253.02 201 252 201 C252 201.99 252 202.98 252 204 C251.01 204 250.02 204 249 204 C249 204.99 249 205.98 249 207 C248.01 207 247.02 207 246 207 C246 207.99 246 208.98 246 210 C245.01 210 244.02 210 243 210 C243 210.99 243 211.98 243 213 C242.01 213 241.02 213 240 213 C240 213.99 240 214.98 240 216 C239.01 216 238.02 216 237 216 C237 216.99 237 217.98 237 219 C236.01 219 235.02 219 234 219 C234 219.99 234 220.98 234 222 C233.01 222 232.02 222 231 222 C231 222.99 231 223.98 231 225 C230.01 225 229.02 225 228 225 C228 225.99 228 226.98 228 228 C227.01 228 226.02 228 225 228 C225 228.99 225 229.98 225 231 C224.01 231 223.02 231 222 231 C222 231.99 222 232.98 222 234 C221.01 234 220.02 234 219 234 C219 234.99 219 235.98 219 237 C218.01 237 217.02 237 216 237 C216 237.99 216 238.98 216 240 C215.01 240 214.02 240 213 240 C213 240.99 213 241.98 213 243 C212.01 243 211.02 243 210 243 C210 243.99 210 244.98 210 246 C209.01 246 208.02 246 207 246 C207 246.99 207 247.98 207 249 C206.01 249 205.02 249 204 249 C204 249.99 204 250.98 204 252 C203.01 252 202.02 252 201 252 C201 252.99 201 253.98 201 255 C200.01 255 199.02 255 198 255 C198 255.99 198 256.98 198 258 C197.01 258 196.02 258 195 258 C195 258.99 195 259.98 195 261 C194.01 261 193.02 261 192 261 C192 261.99 192 262.98 192 264 C191.01 264 190.02 264 189 264 C189 264.99 189 265.98 189 267 C188.01 267 187.02 267 186 267 C186 267.99 186 268.98 186 270 C185.01 270 184.02 270 183 270 C183 270.99 183 271.98 183 273 C182.01 273 181.02 273 180 273 C180 273.99 180 274.98 180 276 C179.01 276 178.02 276 177 276 C177 276.99 177 277.98 177 279 C176.01 279 175.02 279 174 279 C174 279.99 174 280.98 174 282 C173.01 282 172.02 282 171 282 C171 282.99 171 283.98 171 285 C170.01 285 169.02 285 168 285 C168 285.99 168 286.98 168 288 C167.01 288 166.02 288 165 288 C165 288.99 165 289.98 165 291 C164.01 291 163.02 291 162 291 C162 291.99 162 292.98 162 294 C161.01 294 160.02 294 159 294 C159 294.99 159 295.98 159 297 C158.01 297 157.02 297 156 297 C156 297.99 156 298.98 156 300 C155.01 300 154.02 300 153 300 C153 300.99 153 301.98 153 303 C152.01 303 151.02 303 150 303 C150 303.99 150 304.98 150 306 C149.01 306 148.02 306 147 306 C147 306.99 147 307.98 147 309 C146.01 309 145.02 309 144 309 C144 309.99 144 310.98 144 312 C143.01 312 142.02 312 141 312 C141 312.99 141 313.98 141 315 C140.01 315 139.02 315 138 315 C138 315.99 138 316.98 138 318 C137.01 318 136.02 318 135 318 C135 318.99 135 319.98 135 321 C134.01 321 133.02 321 132 321 C132 321.99 132 322.98 132 324 C131.01 324 130.02 324 129 324 C129 324.99 129 325.98 129 327 C128.01 327 127.02 327 126 327 C126 327.99 126 328.98 126 330 C125.01 330 124.02 330 123 330 C123 330.99 123 331.98 123 333 C122.01 333 121.02 333 120 333 C120 333.99 120 334.98 120 336 C119.01 336 118.02 336 117 336 C117 336.99 117 337.98 117 339 C116.01 339 115.02 339 114 339 C114 339.99 114 340.98 114 342 C113.01 342 112.02 342 111 342 C111 342.99 111 343.98 111 345 C110.01 345 109.02 345 108 345 C108 345.99 108 346.98 108 348 C107.01 348 106.02 348 105 348 C105 348.99 105 349.98 105 351 C104.01 351 103.02 351 102 351 C102 351.99 102 352.98 102 354 C101.01 354 100.02 354 99 354 C99 354.99 99 355.98 99 357 C98.01 357 97.02 357 96 357 C96 357.99 96 358.98 96 360 C95.01 360 94.02 360 93 360 C93 360.99 93 361.98 93 363 C92.01 363 91.02 363 90 363 C90 363.99 90 364.98 90 366 C89.01 366 88.02 366 87 366 C87 366.99 87 367.98 87 369 C86.01 369 85.02 369 84 369 C84 369.99 84 370.98 84 372 C83.01 372 82.02 372 81 372 C81 372.99 81 373.98 81 375 C80.01 375 79.02 375 78 375 C78 375.99 78 376.98 78 378 C77.01 378 76.02 378 75 378 C75 378.99 75 379.98 75 381 C74.01 381 73.02 381 72 381 C72 381.99 72 382.98 72 384 C71.01 384 70.02 384 69 384 C69 384.99 69 385.98 69 387 C68.01 387 67.02 387 66 387 C66 387.99 66 388.98 66 390 C65.01 390 64.02 390 63 390 C63 390.99 63 391.98 63 393 C62.01 393 61.02 393 60 393 C60 393.99 60 394.98 60 396 C59.01 396 58.02 396 57 396 C57 396.99 57 397.98 57 399 C56.01 399 55.02 399 54 399 C54 399.99 54 400.98 54 402 C53.01 402 52.02 402 51 402 C51 402.99 51 403.98 51 405 C50.01 405 49.02 405 48 405 C48 405.99 48 406.98 48 408 C47.01 408 46.02 408 45 408 C45 408.99 45 409.98 45 411 C44.01 411 43.02 411 42 411 C42 411.99 42 412.98 42 414 C41.01 414 40.02 414 39 414 C39 414.99 39 415.98 39 417 C38.01 417 37.02 417 36 417 C36 417.99 36 418.98 36 420 C35.01 420 34.02 420 33 420 C33 420.99 33 421.98 33 423 C32.01 423 31.02 423 30 423 C30 423.99 30 424.98 30 426 C29.01 426 28.02 426 27 426 C27 426.99 27 427.98 27 429 C26.01 429 25.02 429 24 429 C24 429.99 24 430.98 24 432 C23.01 432 22.02 432 21 432 C21 432.99 21 433.98 21 435 C20.01 435 19.02 435 18 435 C18 435.99 18 436.98 18 438 C17.01 438 16.02 438 15 438 C15 438.99 15 439.98 15 441 C14.01 441 13.02 441 12 441 C12 440.01 12 439.02 12 438 C11.01 438 10.02 438 9 438 C9 437.01 9 436.02 9 435 C8.01 435 7.02 435 6 435 C6 434.01 6 433.02 6 432 C5.01 432 4.02 432 3 432 C3 431.01 3 430.02 3 429 C2.01 429 1.02 429 0 429 C0 428.01 0 427.02 0 426 C-0.99 426 -1.98 426 -3 426 C-3 425.01 -3 424.02 -3 423 C-3.99 423 -4.98 423 -6 423 C-6 422.01 -6 421.02 -6 420 C-6.99 420 -7.98 420 -9 420 C-9 419.01 -9 418.02 -9 417 C-9.99 417 -10.98 417 -12 417 C-12 416.01 -12 415.02 -12 414 C-12.99 414 -13.98 414 -15 414 C-15 413.01 -15 412.02 -15 411 C-15.99 411 -16.98 411 -18 411 C-18 410.01 -18 409.02 -18 408 C-18.99 408 -19.98 408 -21 408 C-21 407.01 -21 406.02 -21 405 C-21.99 405 -22.98 405 -24 405 C-24 404.01 -24 403.02 -24 402 C-24.99 402 -25.98 402 -27 402 C-27 401.01 -27 400.02 -27 399 C-27.99 399 -28.98 399 -30 399 C-30 398.01 -30 397.02 -30 396 C-30.99 396 -31.98 396 -33 396 C-33 395.01 -33 394.02 -33 393 C-33.99 393 -34.98 393 -36 393 C-36 392.01 -36 391.02 -36 390 C-36.99 390 -37.98 390 -39 390 C-39 389.01 -39 388.02 -39 387 C-39.99 387 -40.98 387 -42 387 C-42 386.01 -42 385.02 -42 384 C-42.99 384 -43.98 384 -45 384 C-45 383.01 -45 382.02 -45 381 C-45.99 381 -46.98 381 -48 381 C-48 380.01 -48 379.02 -48 378 C-48.99 378 -49.98 378 -51 378 C-51 377.01 -51 376.02 -51 375 C-51.99 375 -52.98 375 -54 375 C-54 374.01 -54 373.02 -54 372 C-54.99 372 -55.98 372 -57 372 C-57 371.01 -57 370.02 -57 369 C-57.99 369 -58.98 369 -60 369 C-60 368.01 -60 367.02 -60 366 C-60.99 366 -61.98 366 -63 366 C-63 365.01 -63 364.02 -63 363 C-63.99 363 -64.98 363 -66 363 C-66 362.01 -66 361.02 -66 360 C-66.99 360 -67.98 360 -69 360 C-69 359.01 -69 358.02 -69 357 C-69.99 357 -70.98 357 -72 357 C-72 356.01 -72 355.02 -72 354 C-72.99 354 -73.98 354 -75 354 C-75 353.01 -75 352.02 -75 351 C-75.99 351 -76.98 351 -78 351 C-78 350.01 -78 349.02 -78 348 C-78.99 348 -79.98 348 -81 348 C-81 347.01 -81 346.02 -81 345 C-81.99 345 -82.98 345 -84 345 C-84 344.01 -84 343.02 -84 342 C-84.99 342 -85.98 342 -87 342 C-87 341.01 -87 340.02 -87 339 C-87.99 339 -88.98 339 -90 339 C-90 338.01 -90 337.02 -90 336 C-90.99 336 -91.98 336 -93 336 C-93 335.01 -93 334.02 -93 333 C-93.99 333 -94.98 333 -96 333 C-96 332.01 -96 331.02 -96 330 C-96.99 330 -97.98 330 -99 330 C-99 329.01 -99 328.02 -99 327 C-99.99 327 -100.98 327 -102 327 C-102 326.01 -102 325.02 -102 324 C-102.99 324 -103.98 324 -105 324 C-105 323.01 -105 322.02 -105 321 C-105.99 321 -106.98 321 -108 321 C-108 320.01 -108 319.02 -108 318 C-108.99 318 -109.98 318 -111 318 C-111 317.01 -111 316.02 -111 315 C-111.99 315 -112.98 315 -114 315 C-114 314.01 -114 313.02 -114 312 C-114.99 312 -115.98 312 -117 312 C-117 311.01 -117 310.02 -117 309 C-117.99 309 -118.98 309 -120 309 C-120 308.01 -120 307.02 -120 306 C-120.99 306 -121.98 306 -123 306 C-123 305.01 -123 304.02 -123 303 C-123.99 303 -124.98 303 -126 303 C-126 302.01 -126 301.02 -126 300 C-126.99 300 -127.98 300 -129 300 C-129 299.01 -129 298.02 -129 297 C-129.99 297 -130.98 297 -132 297 C-132 296.01 -132 295.02 -132 294 C-132.99 294 -133.98 294 -135 294 C-135 293.01 -135 292.02 -135 291 C-135.99 291 -136.98 291 -138 291 C-138 290.01 -138 289.02 -138 288 C-138.99 288 -139.98 288 -141 288 C-141 287.01 -141 286.02 -141 285 C-141.99 285 -142.98 285 -144 285 C-144 284.01 -144 283.02 -144 282 C-144.99 282 -145.98 282 -147 282 C-147 281.01 -147 280.02 -147 279 C-147.99 279 -148.98 279 -150 279 C-150 278.01 -150 277.02 -150 276 C-150.99 276 -151.98 276 -153 276 C-153 275.01 -153 274.02 -153 273 C-153.99 273 -154.98 273 -156 273 C-156 272.01 -156 271.02 -156 270 C-156.99 270 -157.98 270 -159 270 C-159 269.01 -159 268.02 -159 267 C-159.99 267 -160.98 267 -162 267 C-162 266.01 -162 265.02 -162 264 C-162.99 264 -163.98 264 -165 264 C-165 263.01 -165 262.02 -165 261 C-165.99 261 -166.98 261 -168 261 C-168 260.01 -168 259.02 -168 258 C-168.99 258 -169.98 258 -171 258 C-171 257.01 -171 256.02 -171 255 C-171.99 255 -172.98 255 -174 255 C-174 254.01 -174 253.02 -174 252 C-174.99 252 -175.98 252 -177 252 C-177 251.01 -177 250.02 -177 249 C-177.99 249 -178.98 249 -180 249 C-180 248.01 -180 247.02 -180 246 C-180.99 246 -181.98 246 -183 246 C-183 245.01 -183 244.02 -183 243 C-183.99 243 -184.98 243 -186 243 C-186 242.01 -186 241.02 -186 240 C-186.99 240 -187.98 240 -189 240 C-189 239.01 -189 238.02 -189 237 C-189.99 237 -190.98 237 -192 237 C-192 236.01 -192 235.02 -192 234 C-192.99 234 -193.98 234 -195 234 C-195 233.01 -195 232.02 -195 231 C-195.99 231 -196.98 231 -198 231 C-198 230.01 -198 229.02 -198 228 C-198.99 228 -199.98 228 -201 228 C-201 227.01 -201 226.02 -201 225 C-201.99 225 -202.98 225 -204 225 C-204 224.01 -204 223.02 -204 222 C-204.99 222 -205.98 222 -207 222 C-207 221.01 -207 220.02 -207 219 C-207.99 219 -208.98 219 -210 219 C-210 218.01 -210 217.02 -210 216 C-210.99 216 -211.98 216 -213 216 C-213 215.01 -213 214.02 -213 213 C-213.99 213 -214.98 213 -216 213 C-216 212.01 -216 211.02 -216 210 C-216.99 210 -217.98 210 -219 210 C-219 209.01 -219 208.02 -219 207 C-219.99 207 -220.98 207 -222 207 C-222 206.01 -222 205.02 -222 204 C-222.99 204 -223.98 204 -225 204 C-225 203.01 -225 202.02 -225 201 C-225.99 201 -226.98 201 -228 201 C-228 200.01 -228 199.02 -228 198 C-228.99 198 -229.98 198 -231 198 C-231 197.01 -231 196.02 -231 195 C-231.99 195 -232.98 195 -234 195 C-234 194.01 -234 193.02 -234 192 C-233.01 192 -232.02 192 -231 192 C-231 191.01 -231 190.02 -231 189 C-230.01 189 -229.02 189 -228 189 C-228 188.01 -228 187.02 -228 186 C-227.01 186 -226.02 186 -225 186 C-225 185.01 -225 184.02 -225 183 C-224.01 183 -223.02 183 -222 183 C-222 182.01 -222 181.02 -222 180 C-221.01 180 -220.02 180 -219 180 C-219 179.01 -219 178.02 -219 177 C-218.01 177 -217.02 177 -216 177 C-216 176.01 -216 175.02 -216 174 C-215.01 174 -214.02 174 -213 174 C-213 173.01 -213 172.02 -213 171 C-212.01 171 -211.02 171 -210 171 C-210 170.01 -210 169.02 -210 168 C-209.01 168 -208.02 168 -207 168 C-207 167.01 -207 166.02 -207 165 C-206.01 165 -205.02 165 -204 165 C-204 164.01 -204 163.02 -204 162 C-203.01 162 -202.02 162 -201 162 C-201 161.01 -201 160.02 -201 159 C-200.01 159 -199.02 159 -198 159 C-198 158.01 -198 157.02 -198 156 C-197.01 156 -196.02 156 -195 156 C-195 155.01 -195 154.02 -195 153 C-194.01 153 -193.02 153 -192 153 C-192 152.01 -192 151.02 -192 150 C-191.01 150 -190.02 150 -189 150 C-189 149.01 -189 148.02 -189 147 C-188.01 147 -187.02 147 -186 147 C-186 146.01 -186 145.02 -186 144 C-185.01 144 -184.02 144 -183 144 C-183 143.01 -183 142.02 -183 141 C-182.01 141 -181.02 141 -180 141 C-180 140.01 -180 139.02 -180 138 C-179.01 138 -178.02 138 -177 138 C-177 137.01 -177 136.02 -177 135 C-176.01 135 -175.02 135 -174 135 C-174 134.01 -174 133.02 -174 132 C-173.01 132 -172.02 132 -171 132 C-171 131.01 -171 130.02 -171 129 C-170.01 129 -169.02 129 -168 129 C-168 128.01 -168 127.02 -168 126 C-167.01 126 -166.02 126 -165 126 C-165 125.01 -165 124.02 -165 123 C-164.01 123 -163.02 123 -162 123 C-162 122.01 -162 121.02 -162 120 C-161.01 120 -160.02 120 -159 120 C-159 119.01 -159 118.02 -159 117 C-158.01 117 -157.02 117 -156 117 C-156 116.01 -156 115.02 -156 114 C-155.01 114 -154.02 114 -153 114 C-153 113.01 -153 112.02 -153 111 C-152.01 111 -151.02 111 -150 111 C-150 110.01 -150 109.02 -150 108 C-149.01 108 -148.02 108 -147 108 C-147 107.01 -147 106.02 -147 105 C-146.01 105 -145.02 105 -144 105 C-144 104.01 -144 103.02 -144 102 C-143.01 102 -142.02 102 -141 102 C-141 101.01 -141 100.02 -141 99 C-140.01 99 -139.02 99 -138 99 C-138 98.01 -138 97.02 -138 96 C-137.01 96 -136.02 96 -135 96 C-135 95.01 -135 94.02 -135 93 C-134.01 93 -133.02 93 -132 93 C-132 92.01 -132 91.02 -132 90 C-131.01 90 -130.02 90 -129 90 C-129 89.01 -129 88.02 -129 87 C-128.01 87 -127.02 87 -126 87 C-126 86.01 -126 85.02 -126 84 C-125.01 84 -124.02 84 -123 84 C-123 83.01 -123 82.02 -123 81 C-122.01 81 -121.02 81 -120 81 C-120 80.01 -120 79.02 -120 78 C-119.01 78 -118.02 78 -117 78 C-117 77.01 -117 76.02 -117 75 C-116.01 75 -115.02 75 -114 75 C-114 74.01 -114 73.02 -114 72 C-113.01 72 -112.02 72 -111 72 C-111 71.01 -111 70.02 -111 69 C-110.01 69 -109.02 69 -108 69 C-108 68.01 -108 67.02 -108 66 C-107.01 66 -106.02 66 -105 66 C-105 65.01 -105 64.02 -105 63 C-104.01 63 -103.02 63 -102 63 C-102 62.01 -102 61.02 -102 60 C-101.01 60 -100.02 60 -99 60 C-99 59.01 -99 58.02 -99 57 C-98.01 57 -97.02 57 -96 57 C-96 56.01 -96 55.02 -96 54 C-95.01 54 -94.02 54 -93 54 C-93 53.01 -93 52.02 -93 51 C-92.01 51 -91.02 51 -90 51 C-90 50.01 -90 49.02 -90 48 C-89.01 48 -88.02 48 -87 48 C-87 47.01 -87 46.02 -87 45 C-86.01 45 -85.02 45 -84 45 C-84 44.01 -84 43.02 -84 42 C-83.01 42 -82.02 42 -81 42 C-81 41.01 -81 40.02 -81 39 C-80.01 39 -79.02 39 -78 39 C-78 38.01 -78 37.02 -78 36 C-77.01 36 -76.02 36 -75 36 C-75 35.01 -75 34.02 -75 33 C-74.01 33 -73.02 33 -72 33 C-72 32.01 -72 31.02 -72 30 C-71.01 30 -70.02 30 -69 30 C-69 29.01 -69 28.02 -69 27 C-68.01 27 -67.02 27 -66 27 C-66 26.01 -66 25.02 -66 24 C-64.02 24 -62.04 24 -60 24 C-60 23.01 -60 22.02 -60 21 C-58.02 21 -56.04 21 -54 21 C-54 20.01 -54 19.02 -54 18 C-52.02 18 -50.04 18 -48 18 C-48 17.01 -48 16.02 -48 15 C-46.02 15 -44.04 15 -42 15 C-42 14.01 -42 13.02 -42 12 C-39.03 12 -36.06 12 -33 12 C-33 11.01 -33 10.02 -33 9 C-30.03 9 -27.06 9 -24 9 C-24 8.01 -24 7.02 -24 6 C-21.03 6 -18.06 6 -15 6 C-15 5.01 -15 4.02 -15 3 C-10.05 3 -5.1 3 0 3 C0 2.01 0 1.02 0 0 Z " fill="#FFFFFF" transform="translate(240,37)"/>
<path d="M0 0 C13.86 0 27.72 0 42 0 C42 2.97 42 5.94 42 9 C45.96 9 49.92 9 54 9 C54 11.97 54 14.94 54 18 C56.97 18 59.94 18 63 18 C63 20.97 63 23.94 63 27 C64.98 27 66.96 27 69 27 C69 42.84 69 58.68 69 75 C67.02 75 65.04 75 63 75 C63 77.97 63 80.94 63 84 C60.03 84 57.06 84 54 84 C54 86.97 54 89.94 54 93 C50.04 93 46.08 93 42 93 C42 95.97 42 98.94 42 102 C28.14 102 14.28 102 0 102 C0 99.03 0 96.06 0 93 C-3.96 93 -7.92 93 -12 93 C-12 90.03 -12 87.06 -12 84 C-14.97 84 -17.94 84 -21 84 C-21 81.03 -21 78.06 -21 75 C-22.98 75 -24.96 75 -27 75 C-27 59.16 -27 43.32 -27 27 C-25.02 27 -23.04 27 -21 27 C-21 24.03 -21 21.06 -21 18 C-18.03 18 -15.06 18 -12 18 C-12 15.03 -12 12.06 -12 9 C-8.04 9 -4.08 9 0 9 C0 6.03 0 3.06 0 0 Z " fill="#FFFFFF" transform="translate(177,121)"/>
<path d="M0 0 C3.96 0 7.92 0 12 0 C12 6.93 12 13.86 12 21 C13.98 21 15.96 21 18 21 C18 18.03 18 15.06 18 12 C21.96 12 25.92 12 30 12 C30 8.04 30 4.08 30 0 C49.8 0 69.6 0 90 0 C90 3.96 90 7.92 90 12 C93.96 12 97.92 12 102 12 C102 14.97 102 17.94 102 21 C104.97 21 107.94 21 111 21 C111 24.96 111 28.92 111 33 C113.97 33 116.94 33 120 33 C120 52.8 120 72.6 120 93 C117.03 93 114.06 93 111 93 C111 96.96 111 100.92 111 105 C108.03 105 105.06 105 102 105 C102 107.97 102 110.94 102 114 C98.04 114 94.08 114 90 114 C90 117.96 90 121.92 90 126 C70.2 126 50.4 126 30 126 C30 122.04 30 118.08 30 114 C26.04 114 22.08 114 18 114 C18 111.03 18 108.06 18 105 C16.02 105 14.04 105 12 105 C12 146.58 12 188.16 12 231 C8.04 231 4.08 231 0 231 C0 154.77 0 78.54 0 0 Z M39 12 C39 14.97 39 17.94 39 21 C35.04 21 31.08 21 27 21 C27 23.97 27 26.94 27 30 C24.03 30 21.06 30 18 30 C18 32.97 18 35.94 18 39 C16.02 39 14.04 39 12 39 C12 54.84 12 70.68 12 87 C13.98 87 15.96 87 18 87 C18 89.97 18 92.94 18 96 C20.97 96 23.94 96 27 96 C27 98.97 27 101.94 27 105 C30.96 105 34.92 105 39 105 C39 107.97 39 110.94 39 114 C52.86 114 66.72 114 81 114 C81 111.03 81 108.06 81 105 C84.96 105 88.92 105 93 105 C93 102.03 93 99.06 93 96 C95.97 96 98.94 96 102 96 C102 93.03 102 90.06 102 87 C103.98 87 105.96 87 108 87 C108 71.16 108 55.32 108 39 C106.02 39 104.04 39 102 39 C102 36.03 102 33.06 102 30 C99.03 30 96.06 30 93 30 C93 27.03 93 24.06 93 21 C89.04 21 85.08 21 81 21 C81 18.03 81 15.06 81 12 C67.14 12 53.28 12 39 12 Z " fill="#000000" transform="translate(138,109)"/>
<path d="M0 0 C3.96 0 7.92 0 12 0 C12 16.83 12 33.66 12 51 C12.99 51 13.98 51 15 51 C15 58.92 15 66.84 15 75 C17.97 75 20.94 75 24 75 C24 80.94 24 86.88 24 93 C25.98 93 27.96 93 30 93 C30 95.97 30 98.94 30 102 C39.9 102 49.8 102 60 102 C60 99.03 60 96.06 60 93 C61.98 93 63.96 93 66 93 C66 87.06 66 81.12 66 75 C68.97 75 71.94 75 75 75 C75 67.08 75 59.16 75 51 C75.99 51 76.98 51 78 51 C78 34.17 78 17.34 78 0 C81.96 0 85.92 0 90 0 C90 22.77 90 45.54 90 69 C88.02 69 86.04 69 84 69 C84 76.92 84 84.84 84 93 C82.02 93 80.04 93 78 93 C78 95.97 78 98.94 78 102 C75.03 102 72.06 102 69 102 C69 104.97 69 107.94 69 111 C65.04 111 61.08 111 57 111 C57 112.98 57 114.96 57 117 C49.08 117 41.16 117 33 117 C33 115.02 33 113.04 33 111 C29.04 111 25.08 111 21 111 C21 108.03 21 105.06 21 102 C18.03 102 15.06 102 12 102 C12 99.03 12 96.06 12 93 C10.02 93 8.04 93 6 93 C6 85.08 6 77.16 6 69 C4.02 69 2.04 69 0 69 C0 46.23 0 23.46 0 0 Z " fill="#000000" transform="translate(180,280)"/>
<path d="M0 0 C3.96 0 7.92 0 12 0 C12 59.4 12 118.8 12 180 C34.77 180 57.54 180 81 180 C81 183.96 81 187.92 81 192 C54.27 192 27.54 192 0 192 C0 128.64 0 65.28 0 0 Z " fill="#000000" transform="translate(339,100)"/>
<path d="M0 0 C3.96 0 7.92 0 12 0 C12 57.42 12 114.84 12 174 C35.76 174 59.52 174 84 174 C84 177.96 84 181.92 84 186 C56.28 186 28.56 186 0 186 C0 124.62 0 63.24 0 0 Z " fill="#000000" transform="translate(300,142)"/>
</svg>
